<svg width="160" height="170" viewBox="0 0 160 170" fill="none" xmlns="http://www.w3.org/2000/svg">
<path d="M156.594 155.163H148.907V8.40168C148.907 3.75394 145.153 0 140.506 0H81.1577C76.5099 0 72.756 3.75394 72.756 8.40168V116.193L77.5825 121.02C81.3364 124.774 82.409 130.315 80.4427 135.142C79.0126 138.538 76.1524 141.22 72.756 142.471V166.425C72.756 167.676 72.5772 168.927 72.2197 170H156.594C158.203 170 159.454 168.749 159.454 167.14V158.023C159.454 156.236 158.203 155.163 156.594 155.163ZM104.039 139.432C104.039 141.041 102.788 142.292 101.179 142.292H92.777C91.1682 142.292 89.9169 141.041 89.9169 139.432V131.031C89.9169 129.422 91.1682 128.17 92.777 128.17H101.179C102.788 128.17 104.039 129.422 104.039 131.031V139.432ZM104.039 111.546C104.039 113.155 102.788 114.406 101.179 114.406H92.777C91.1682 114.406 89.9169 113.155 89.9169 111.546V103.144C89.9169 101.535 91.1682 100.284 92.777 100.284H101.179C102.788 100.284 104.039 101.535 104.039 103.144V111.546ZM104.039 83.8381C104.039 85.4469 102.788 86.6982 101.179 86.6982H92.777C91.1682 86.6982 89.9169 85.4469 89.9169 83.8381V75.4364C89.9169 73.8276 91.1682 72.5762 92.777 72.5762H101.179C102.788 72.5762 104.039 73.8276 104.039 75.4364V83.8381ZM104.039 56.1304C104.039 57.7392 102.788 58.9905 101.179 58.9905H92.777C91.1682 58.9905 89.9169 57.7392 89.9169 56.1304V47.7287C89.9169 46.1199 91.1682 44.8686 92.777 44.8686H101.179C102.788 44.8686 104.039 46.1199 104.039 47.7287V56.1304ZM104.039 28.4227C104.039 30.0315 102.788 31.2829 101.179 31.2829H92.777C91.1682 31.2829 89.9169 30.0315 89.9169 28.4227V20.021C89.9169 18.4122 91.1682 17.1609 92.777 17.1609H101.179C102.788 17.1609 104.039 18.4122 104.039 20.021V28.4227ZM131.747 139.432C131.747 141.041 130.495 142.292 128.886 142.292H120.485C118.876 142.292 117.625 141.041 117.625 139.432V131.031C117.625 129.422 118.876 128.17 120.485 128.17H128.886C130.495 128.17 131.747 129.422 131.747 131.031V139.432ZM131.747 111.546C131.747 113.155 130.495 114.406 128.886 114.406H120.485C118.876 114.406 117.625 113.155 117.625 111.546V103.144C117.625 101.535 118.876 100.284 120.485 100.284H128.886C130.495 100.284 131.747 101.535 131.747 103.144V111.546ZM131.747 83.8381C131.747 85.4469 130.495 86.6982 128.886 86.6982H120.485C118.876 86.6982 117.625 85.4469 117.625 83.8381V75.4364C117.625 73.8276 118.876 72.5762 120.485 72.5762H128.886C130.495 72.5762 131.747 73.8276 131.747 75.4364V83.8381ZM131.747 56.1304C131.747 57.7392 130.495 58.9905 128.886 58.9905H120.485C118.876 58.9905 117.625 57.7392 117.625 56.1304V47.7287C117.625 46.1199 118.876 44.8686 120.485 44.8686H128.886C130.495 44.8686 131.747 46.1199 131.747 47.7287V56.1304ZM131.747 28.4227C131.747 30.0315 130.495 31.2829 128.886 31.2829H120.485C118.876 31.2829 117.625 30.0315 117.625 28.4227V20.021C117.625 18.4122 118.876 17.1609 120.485 17.1609H128.886C130.495 17.1609 131.747 18.4122 131.747 20.021V28.4227Z" fill="white"/>
<path d="M71.6831 126.739L39.8639 94.9203C38.0764 93.1327 35.0374 93.1327 33.2499 94.9203L1.43072 126.739C-1.60819 129.6 0.536924 134.605 4.64839 134.605H8.58109V166.066C8.58109 168.033 10.1899 169.642 12.1563 169.642H25.742C27.3508 169.642 28.6021 168.39 28.6021 166.781V148.012C28.6021 146.582 29.8534 145.33 31.2835 145.33H42.0091C43.4391 145.33 44.6904 146.582 44.6904 148.012V166.96C44.6904 168.569 45.9418 169.82 47.5506 169.82H60.9575C62.9239 169.82 64.5327 168.212 64.5327 166.245V134.605H68.4654C72.5769 134.605 74.722 129.6 71.6831 126.739Z" fill="white"/>
</svg>
