<svg width="126" height="169" viewBox="0 0 126 169" fill="none" xmlns="http://www.w3.org/2000/svg">
<path d="M42.0143 77.076L44.6691 75.6601L50.1558 86.6335L59.5362 72.8283L41.1293 45.0408L12.9879 2.03226C11.749 0.0853712 8.91719 -0.622567 6.9703 0.616363C0.952635 4.15616 -1.52527 11.4127 0.952592 17.7843L21.3064 69.8194C24.3153 78.1379 34.2267 81.5007 42.0143 77.076Z" fill="white"/>
<path d="M76.3506 98.3154L66.2622 119.023L87.147 161.147C90.3328 167.519 98.1204 169.996 104.315 166.457L105.377 165.749C111.572 162.209 113.518 154.067 109.448 148.227L76.3506 98.3154Z" fill="white"/>
<path d="M124.845 15.1284C123.075 13.5354 120.421 14.0664 119.182 16.0133C119.182 16.0133 103.253 42.3849 98.6508 49.8185C97.9428 50.8804 96.5269 51.2344 95.465 50.7034C94.4031 49.9955 93.8721 48.5796 94.5801 47.5176C98.8278 39.7301 113.518 12.8275 113.518 12.8275C114.58 10.8806 113.695 8.40276 111.394 7.51781C109.801 6.98684 108.031 7.69484 107.146 9.11076L86.6155 42.9158C85.9075 43.9778 84.4915 44.3317 83.4296 43.8008C82.3677 43.0928 81.8367 41.6769 82.5447 40.615C86.7924 32.8274 101.483 5.92496 101.483 5.92496C102.545 3.97807 101.66 1.50021 99.3587 0.615264C97.7658 0.0842936 95.996 0.792189 95.111 2.20811L73.3413 37.9601L70.6864 42.7389C67.8546 47.5176 66.9696 53.1812 68.2085 57.606L70.8634 67.1635L16.1734 148.048C12.2796 154.065 14.0496 162.03 20.2443 165.57L21.3062 166.278C27.5008 169.818 35.4654 167.517 38.4742 160.968L81.1288 73.1812L90.6863 70.7033C95.288 69.4643 99.5357 65.9245 102.368 61.1458L105.022 56.3671L125.022 19.7302C126.438 18.1373 126.261 16.1903 124.845 15.1284Z" fill="white"/>
</svg>
