<svg width="118" height="167" viewBox="0 0 118 167" fill="none" xmlns="http://www.w3.org/2000/svg">
<path d="M59.018 4.06622e-06C48.6584 -0.00385705 38.4804 2.74211 29.5078 7.96173C20.5351 13.1814 13.0841 20.6906 7.90424 29.7341C2.72436 38.7777 -0.0017827 49.0367 8.74612e-07 59.4794C0.00178445 69.9221 2.73143 80.1801 7.9144 89.2219L49.1793 161.261C50.1697 163.004 51.5995 164.454 53.3241 165.461C55.0486 166.469 57.0066 167 59 167C60.9934 167 62.9514 166.469 64.6759 165.461C66.4004 164.454 67.8303 163.004 68.8207 161.261L110.086 89.2219C115.267 80.1828 117.997 69.9281 118 59.4885C118.003 49.0489 115.28 38.7924 110.105 29.7499C104.929 20.7074 97.4833 13.1976 88.5156 7.97536C79.548 2.75314 69.3746 0.00252159 59.018 4.06622e-06V4.06622e-06ZM59.018 90.566C53.2516 90.566 47.6146 88.8424 42.82 85.613C38.0253 82.3837 34.2884 77.7937 32.0816 72.4234C29.8749 67.0532 29.2975 61.144 30.4225 55.443C31.5475 49.742 34.3243 44.5053 38.4018 40.3951C42.4793 36.2849 47.6744 33.4858 53.33 32.3518C58.9857 31.2178 64.8479 31.7998 70.1754 34.0243C75.5029 36.2487 80.0564 40.0156 83.2601 44.8487C86.4638 49.6817 88.1737 55.3639 88.1737 61.1766C88.1642 68.9682 85.0894 76.4379 79.6237 81.9475C74.158 87.457 66.7477 90.5564 59.018 90.566V90.566Z" fill="#929292"/>
</svg>
