<svg width="122" height="122" viewBox="0 0 122 122" fill="none" xmlns="http://www.w3.org/2000/svg">
<path d="M61 0C27.3537 0 0 27.3537 0 61C0 94.6463 27.3537 122 61 122C94.6463 122 122 94.6463 122 61C122 27.3537 94.6463 0 61 0ZM61 105.562C36.4716 105.562 16.4379 85.5284 16.4379 61C16.4379 36.4716 36.4716 16.4379 61 16.4379C85.5284 16.4379 105.562 36.4716 105.562 61C105.562 85.5284 85.5284 105.562 61 105.562Z" fill="#E1E1E1"/>
<path d="M73.4562 50.2116L60.9993 62.6684L48.5425 50.2116C45.3319 47.0011 40.1951 47.0011 36.9846 50.2116C33.774 53.4221 33.774 58.559 36.9846 61.7695L55.2204 80.0053C56.7614 81.5463 58.9446 82.4453 60.9993 82.4453C63.054 82.4453 65.2372 81.6748 66.7783 80.0053L85.0141 61.7695C88.2246 58.559 88.2246 53.4221 85.0141 50.2116C81.8035 47.1295 76.5383 47.1295 73.4562 50.2116Z" fill="#E1E1E1"/>
</svg>
