<svg width="265" height="182" viewBox="0 0 265 182" fill="none" xmlns="http://www.w3.org/2000/svg">
<path fill-rule="evenodd" clip-rule="evenodd" d="M209.444 60.6511C220.659 61.7875 230.671 53.6176 231.807 42.4031C232.944 31.1886 224.774 21.1762 213.559 20.0398C202.345 18.9034 192.333 27.0733 191.196 38.2878C190.06 49.5023 198.23 59.5146 209.444 60.6511ZM71.1816 34.3935C71.7384 28.8988 76.6442 24.8959 82.1389 25.4527L115.212 28.8041C120.707 29.3609 124.71 34.2666 124.153 39.7613L120.533 75.483C119.976 80.9777 115.07 84.9807 109.576 84.4239L76.5027 81.0724C71.008 80.5156 67.005 75.6099 67.5618 70.1152L71.1816 34.3935ZM8.77743 69.3039C8.90095 68.0849 9.98925 67.1969 11.2082 67.3204L51.8195 71.4357C53.0384 71.5592 53.9265 72.6475 53.803 73.8665C53.6794 75.0855 52.5911 75.9735 51.3722 75.85L10.7609 71.7347C9.54194 71.6111 8.6539 70.5228 8.77743 69.3039ZM19.208 93.9969C17.989 93.8733 16.9007 94.7614 16.7772 95.9803C16.6537 97.1993 17.5417 98.2876 18.7607 98.4111L59.3719 102.526C60.5909 102.65 61.6792 101.762 61.8027 100.543C61.9262 99.324 61.0382 98.2357 59.8192 98.1122L19.208 93.9969ZM3.32016 123.158C3.44369 121.939 4.53199 121.051 5.75096 121.174L46.3622 125.29C47.5812 125.413 48.4692 126.502 48.3457 127.721C48.2222 128.939 47.1339 129.828 45.9149 129.704L5.30364 125.589C4.08467 125.465 3.19664 124.377 3.32016 123.158ZM235.191 166.897C224.279 177.225 208.956 178.754 200.967 170.314C192.978 161.873 195.347 146.657 206.259 136.33C217.171 126.002 232.493 124.472 240.483 132.913C248.472 141.354 246.102 156.569 235.191 166.897ZM71.8917 159.018C79.8809 167.459 95.2032 165.929 106.115 155.601C117.027 145.273 119.396 130.058 111.407 121.617C103.418 113.176 88.0955 114.706 77.1836 125.034C66.2718 135.362 63.9025 150.577 71.8917 159.018Z" fill="#FB6E44"/>
<path d="M56.4585 135.678L71.0256 137.154L195.642 148.444C195.642 148.444 241.529 135.702 243.647 136.808C245.765 137.915 253.23 134.658 253.23 134.658C250.456 117.307 244.096 113.001 230.529 107.829L220.993 74.3081C224.359 71.5135 228.038 70.6534 222.022 64.1553C213.624 63.9499 212.354 65.8734 210.757 69.7032L189.87 73.384L205.913 60.2931L192.112 46.8537C146.937 57.6462 126.128 67.2335 123.587 84.9517C135.748 94.9563 145.582 98.5415 165.902 103.064C147.852 116.033 135.012 122.321 131.077 129.861L164.626 133.26C172.314 128.744 169.101 126.651 158.061 123.23L188.459 104.904C185.964 92.116 173.25 88.0967 156.265 79.3439L185.825 60.4873C176.402 67.5184 170.422 70.944 166.68 82.1831C188.497 87.6344 195.285 81.2025 211.365 76.9002L208.028 96.6302L166.564 136.133L118.89 131.302C129.007 122.567 149.757 105.959 153.67 104.947C157.584 103.934 113.371 98.4344 118.195 89.7568L80.6735 85.9546C83.2088 97.1923 85.6662 100.083 91.1159 101.729C73.2683 111.717 65.3589 118.901 56.4585 135.678Z" fill="#FB6E44"/>
<path d="M234.595 47.7324L229.003 45.9943L189 33.8274C196.334 16.3494 207.496 10.797 222.121 15.1426C236.745 19.4881 237.613 34.2323 234.595 47.7324Z" fill="#FB6E44"/>
<path fill-rule="evenodd" clip-rule="evenodd" d="M209.444 60.6511C220.659 61.7875 230.671 53.6176 231.807 42.4031C232.944 31.1886 224.774 21.1762 213.559 20.0398C202.345 18.9034 192.333 27.0733 191.196 38.2878C190.06 49.5023 198.23 59.5146 209.444 60.6511ZM71.1816 34.3935C71.7384 28.8988 76.6442 24.8959 82.1389 25.4527L115.212 28.8041C120.707 29.3609 124.71 34.2666 124.153 39.7613L120.533 75.483C119.976 80.9777 115.07 84.9807 109.576 84.4239L76.5027 81.0724C71.008 80.5156 67.005 75.6099 67.5618 70.1152L71.1816 34.3935ZM8.77743 69.3039C8.90095 68.0849 9.98925 67.1969 11.2082 67.3204L51.8195 71.4357C53.0384 71.5592 53.9265 72.6475 53.803 73.8665C53.6794 75.0855 52.5911 75.9735 51.3722 75.85L10.7609 71.7347C9.54194 71.6111 8.6539 70.5228 8.77743 69.3039ZM19.208 93.9969C17.989 93.8733 16.9007 94.7614 16.7772 95.9803C16.6537 97.1993 17.5417 98.2876 18.7607 98.4111L59.3719 102.526C60.5909 102.65 61.6792 101.762 61.8027 100.543C61.9262 99.324 61.0382 98.2357 59.8192 98.1122L19.208 93.9969ZM3.32016 123.158C3.44369 121.939 4.53199 121.051 5.75096 121.174L46.3622 125.29C47.5812 125.413 48.4692 126.502 48.3457 127.721C48.2222 128.939 47.1339 129.828 45.9149 129.704L5.30364 125.589C4.08467 125.465 3.19664 124.377 3.32016 123.158ZM235.191 166.897C224.279 177.225 208.956 178.754 200.967 170.314C192.978 161.873 195.347 146.657 206.259 136.33C217.171 126.002 232.493 124.472 240.483 132.913C248.472 141.354 246.102 156.569 235.191 166.897ZM71.8917 159.018C79.8809 167.459 95.2032 165.929 106.115 155.601C117.027 145.273 119.396 130.058 111.407 121.617C103.418 113.176 88.0955 114.706 77.1836 125.034C66.2718 135.362 63.9025 150.577 71.8917 159.018Z" fill="#FB6E44"/>
<path d="M56.4585 135.678L71.0256 137.154L195.642 148.444C195.642 148.444 241.529 135.702 243.647 136.808C245.765 137.915 253.23 134.658 253.23 134.658C250.456 117.307 244.096 113.001 230.529 107.829L220.993 74.3081C224.359 71.5135 228.038 70.6534 222.022 64.1553C213.624 63.9499 212.354 65.8734 210.757 69.7032L189.87 73.384L205.913 60.2931L192.112 46.8537C146.937 57.6462 126.128 67.2335 123.587 84.9517C135.748 94.9563 145.582 98.5415 165.902 103.064C147.852 116.033 135.012 122.321 131.077 129.861L164.626 133.26C172.314 128.744 169.101 126.651 158.061 123.23L188.459 104.904C185.964 92.116 173.25 88.0967 156.265 79.3439L185.825 60.4873C176.402 67.5184 170.422 70.944 166.68 82.1831C188.497 87.6344 195.285 81.2025 211.365 76.9002L208.028 96.6302L166.564 136.133L118.89 131.302C129.007 122.567 149.757 105.959 153.67 104.947C157.584 103.934 113.371 98.4344 118.195 89.7568L80.6735 85.9546C83.2088 97.1923 85.6662 100.083 91.1159 101.729C73.2683 111.717 65.3589 118.901 56.4585 135.678Z" fill="#FB6E44"/>
<path d="M234.595 47.7324L229.003 45.9943L189 33.8274C196.334 16.3494 207.496 10.797 222.121 15.1426C236.745 19.4881 237.613 34.2323 234.595 47.7324Z" fill="#FB6E44"/>
<path fill-rule="evenodd" clip-rule="evenodd" d="M209.444 60.6511C220.659 61.7875 230.671 53.6176 231.807 42.4031C232.944 31.1886 224.774 21.1762 213.559 20.0398C202.345 18.9034 192.333 27.0733 191.196 38.2878C190.06 49.5023 198.23 59.5146 209.444 60.6511ZM71.1816 34.3935C71.7384 28.8988 76.6442 24.8959 82.1389 25.4527L115.212 28.8041C120.707 29.3609 124.71 34.2666 124.153 39.7613L120.533 75.483C119.976 80.9777 115.07 84.9807 109.576 84.4239L76.5027 81.0724C71.008 80.5156 67.005 75.6099 67.5618 70.1152L71.1816 34.3935ZM8.77743 69.3039C8.90095 68.0849 9.98925 67.1969 11.2082 67.3204L51.8195 71.4357C53.0384 71.5592 53.9265 72.6475 53.803 73.8665C53.6794 75.0855 52.5911 75.9735 51.3722 75.85L10.7609 71.7347C9.54194 71.6111 8.6539 70.5228 8.77743 69.3039ZM19.208 93.9969C17.989 93.8733 16.9007 94.7614 16.7772 95.9803C16.6537 97.1993 17.5417 98.2876 18.7607 98.4111L59.3719 102.526C60.5909 102.65 61.6792 101.762 61.8027 100.543C61.9262 99.324 61.0382 98.2357 59.8192 98.1122L19.208 93.9969ZM3.32016 123.158C3.44369 121.939 4.53199 121.051 5.75096 121.174L46.3622 125.29C47.5812 125.413 48.4692 126.502 48.3457 127.721C48.2222 128.939 47.1339 129.828 45.9149 129.704L5.30364 125.589C4.08467 125.465 3.19664 124.377 3.32016 123.158ZM235.191 166.897C224.279 177.225 208.956 178.754 200.967 170.314C192.978 161.873 195.347 146.657 206.259 136.33C217.171 126.002 232.493 124.472 240.483 132.913C248.472 141.354 246.102 156.569 235.191 166.897ZM71.8917 159.018C79.8809 167.459 95.2032 165.929 106.115 155.601C117.027 145.273 119.396 130.058 111.407 121.617C103.418 113.176 88.0955 114.706 77.1836 125.034C66.2718 135.362 63.9025 150.577 71.8917 159.018Z" fill="#FB6E44"/>
<path d="M56.4585 135.678L71.0256 137.154L195.642 148.444C195.642 148.444 241.529 135.702 243.647 136.808C245.765 137.915 253.23 134.658 253.23 134.658C250.456 117.307 244.096 113.001 230.529 107.829L220.993 74.3081C224.359 71.5135 228.038 70.6534 222.022 64.1553C213.624 63.9499 212.354 65.8734 210.757 69.7032L189.87 73.384L205.913 60.2931L192.112 46.8537C146.937 57.6462 126.128 67.2335 123.587 84.9517C135.748 94.9563 145.582 98.5415 165.902 103.064C147.852 116.033 135.012 122.321 131.077 129.861L164.626 133.26C172.314 128.744 169.101 126.651 158.061 123.23L188.459 104.904C185.964 92.116 173.25 88.0967 156.265 79.3439L185.825 60.4873C176.402 67.5184 170.422 70.944 166.68 82.1831C188.497 87.6344 195.285 81.2025 211.365 76.9002L208.028 96.6302L166.564 136.133L118.89 131.302C129.007 122.567 149.757 105.959 153.67 104.947C157.584 103.934 113.371 98.4344 118.195 89.7568L80.6735 85.9546C83.2088 97.1923 85.6662 100.083 91.1159 101.729C73.2683 111.717 65.3589 118.901 56.4585 135.678Z" fill="#FB6E44"/>
<path d="M234.595 47.7324L229.003 45.9943L189 33.8274C196.334 16.3494 207.496 10.797 222.121 15.1426C236.745 19.4881 237.613 34.2323 234.595 47.7324Z" fill="#FB6E44"/>
</svg>
