<svg width="277" height="35" viewBox="0 0 277 35" fill="none" xmlns="http://www.w3.org/2000/svg">
<rect x="259.604" width="33.9855" height="245.072" transform="rotate(90 259.604 0)" fill="white"/>
<rect x="17.1216" y="1.82056" width="126.85" height="30.3442" fill="#1F2021"/>
<path d="M37.2835 11.2899V19.2649H47.7815V21.1209H37.2835V29.7339H35.1375V9.43389H49.0575V11.2899H37.2835ZM67.6182 29.9079C65.6076 29.9079 63.7806 29.4632 62.1372 28.5739C60.5132 27.6652 59.2372 26.4279 58.3092 24.8619C57.4006 23.2959 56.9462 21.5366 56.9462 19.5839C56.9462 17.6312 57.4006 15.8719 58.3092 14.3059C59.2372 12.7399 60.5132 11.5122 62.1372 10.6229C63.7806 9.71422 65.6076 9.25989 67.6182 9.25989C69.6289 9.25989 71.4366 9.70455 73.0412 10.5939C74.6652 11.4832 75.9412 12.7206 76.8692 14.3059C77.7972 15.8719 78.2612 17.6312 78.2612 19.5839C78.2612 21.5366 77.7972 23.3056 76.8692 24.8909C75.9412 26.4569 74.6652 27.6846 73.0412 28.5739C71.4366 29.4632 69.6289 29.9079 67.6182 29.9079ZM67.6182 27.9939C69.2229 27.9939 70.6729 27.6362 71.9682 26.9209C73.2636 26.1862 74.2786 25.1809 75.0132 23.9049C75.7479 22.6096 76.1152 21.1692 76.1152 19.5839C76.1152 17.9986 75.7479 16.5679 75.0132 15.2919C74.2786 13.9966 73.2636 12.9912 71.9682 12.2759C70.6729 11.5412 69.2229 11.1739 67.6182 11.1739C66.0136 11.1739 64.5539 11.5412 63.2392 12.2759C61.9439 12.9912 60.9192 13.9966 60.1652 15.2919C59.4306 16.5679 59.0632 17.9986 59.0632 19.5839C59.0632 21.1692 59.4306 22.6096 60.1652 23.9049C60.9192 25.1809 61.9439 26.1862 63.2392 26.9209C64.5539 27.6362 66.0136 27.9939 67.6182 27.9939ZM97.4554 29.9079C95.4447 29.9079 93.6177 29.4632 91.9744 28.5739C90.3504 27.6652 89.0744 26.4279 88.1464 24.8619C87.2377 23.2959 86.7834 21.5366 86.7834 19.5839C86.7834 17.6312 87.2377 15.8719 88.1464 14.3059C89.0744 12.7399 90.3504 11.5122 91.9744 10.6229C93.6177 9.71422 95.4447 9.25989 97.4554 9.25989C99.466 9.25989 101.274 9.70455 102.878 10.5939C104.502 11.4832 105.778 12.7206 106.706 14.3059C107.634 15.8719 108.098 17.6312 108.098 19.5839C108.098 21.5366 107.634 23.3056 106.706 24.8909C105.778 26.4569 104.502 27.6846 102.878 28.5739C101.274 29.4632 99.466 29.9079 97.4554 29.9079ZM97.4554 27.9939C99.06 27.9939 100.51 27.6362 101.805 26.9209C103.101 26.1862 104.116 25.1809 104.85 23.9049C105.585 22.6096 105.952 21.1692 105.952 19.5839C105.952 17.9986 105.585 16.5679 104.85 15.2919C104.116 13.9966 103.101 12.9912 101.805 12.2759C100.51 11.5412 99.06 11.1739 97.4554 11.1739C95.8507 11.1739 94.391 11.5412 93.0764 12.2759C91.781 12.9912 90.7564 13.9966 90.0024 15.2919C89.2677 16.5679 88.9004 17.9986 88.9004 19.5839C88.9004 21.1692 89.2677 22.6096 90.0024 23.9049C90.7564 25.1809 91.781 26.1862 93.0764 26.9209C94.391 27.6362 95.8507 27.9939 97.4554 27.9939ZM118.419 9.43389H126.684C128.83 9.43389 130.724 9.86889 132.368 10.7389C134.011 11.5896 135.287 12.7882 136.196 14.3349C137.104 15.8622 137.559 17.6119 137.559 19.5839C137.559 21.5559 137.104 23.3152 136.196 24.8619C135.287 26.3892 134.011 27.5879 132.368 28.4579C130.724 29.3086 128.83 29.7339 126.684 29.7339H118.419V9.43389ZM126.568 27.8779C128.346 27.8779 129.903 27.5299 131.237 26.8339C132.571 26.1186 133.605 25.1422 134.34 23.9049C135.074 22.6482 135.442 21.2079 135.442 19.5839C135.442 17.9599 135.074 16.5292 134.34 15.2919C133.605 14.0352 132.571 13.0589 131.237 12.3629C129.903 11.6476 128.346 11.2899 126.568 11.2899H120.565V27.8779H126.568Z" fill="white"/>
<path d="M165.549 24.3109H154.239L151.803 29.7339H149.57L158.85 9.43389H160.967L170.247 29.7339H167.985L165.549 24.3109ZM164.766 22.5709L159.894 11.6669L155.022 22.5709H164.766ZM191.904 19.2649C193.238 19.5549 194.262 20.1349 194.978 21.0049C195.712 21.8556 196.08 22.9576 196.08 24.3109C196.08 26.0509 195.432 27.3946 194.137 28.3419C192.861 29.2699 190.966 29.7339 188.453 29.7339H179.115V9.43389H187.873C190.135 9.43389 191.884 9.88822 193.122 10.7969C194.378 11.7056 195.007 12.9912 195.007 14.6539C195.007 15.7752 194.726 16.7322 194.166 17.5249C193.624 18.2982 192.87 18.8782 191.904 19.2649ZM181.261 11.2029V18.5689H187.728C189.371 18.5689 190.637 18.2596 191.527 17.6409C192.416 17.0029 192.861 16.0846 192.861 14.8859C192.861 13.6872 192.416 12.7786 191.527 12.1599C190.637 11.5219 189.371 11.2029 187.728 11.2029H181.261ZM188.424 27.9649C190.241 27.9649 191.614 27.6556 192.542 27.0369C193.47 26.4182 193.934 25.4516 193.934 24.1369C193.934 21.6042 192.097 20.3379 188.424 20.3379H181.261V27.9649H188.424ZM206.488 9.43389H208.634V27.8779H220.002V29.7339H206.488V9.43389ZM243.43 27.8779V29.7339H229.075V9.43389H242.995V11.2899H231.221V18.5109H241.719V20.3379H231.221V27.8779H243.43Z" fill="#1F2021"/>
</svg>
