<svg width="397" height="72" viewBox="0 0 397 72" fill="none" xmlns="http://www.w3.org/2000/svg">
<path fill-rule="evenodd" clip-rule="evenodd" d="M371.254 66.9746V1.35247e-05L20.783 0L20.783 66.9746L371.254 66.9746ZM205.891 3.5879H24.4853V63.3866H205.891V3.5879Z" fill="url(#paint0_linear)"/>
<path d="M51.4763 21.705V33.255H66.6803V35.943H51.4763V48.417H48.3683V19.017H68.5283V21.705H51.4763ZM95.4093 48.669C92.4973 48.669 89.8513 48.025 87.4713 46.737C85.1193 45.421 83.2713 43.629 81.9273 41.361C80.6113 39.093 79.9533 36.545 79.9533 33.717C79.9533 30.889 80.6113 28.341 81.9273 26.073C83.2713 23.805 85.1193 22.027 87.4713 20.739C89.8513 19.423 92.4973 18.765 95.4093 18.765C98.3213 18.765 100.939 19.409 103.263 20.697C105.615 21.985 107.463 23.777 108.807 26.073C110.151 28.341 110.823 30.889 110.823 33.717C110.823 36.545 110.151 39.107 108.807 41.403C107.463 43.671 105.615 45.449 103.263 46.737C100.939 48.025 98.3213 48.669 95.4093 48.669ZM95.4093 45.897C97.7333 45.897 99.8333 45.379 101.709 44.343C103.585 43.279 105.055 41.823 106.119 39.975C107.183 38.099 107.715 36.013 107.715 33.717C107.715 31.421 107.183 29.349 106.119 27.501C105.055 25.625 103.585 24.169 101.709 23.133C99.8333 22.069 97.7333 21.537 95.4093 21.537C93.0853 21.537 90.9713 22.069 89.0673 23.133C87.1913 24.169 85.7073 25.625 84.6153 27.501C83.5513 29.349 83.0193 31.421 83.0193 33.717C83.0193 36.013 83.5513 38.099 84.6153 39.975C85.7073 41.823 87.1913 43.279 89.0673 44.343C90.9713 45.379 93.0853 45.897 95.4093 45.897Z" fill="#F9704C"/>
<path d="M138.622 48.669C135.71 48.669 133.064 48.025 130.684 46.737C128.332 45.421 126.484 43.629 125.14 41.361C123.824 39.093 123.166 36.545 123.166 33.717C123.166 30.889 123.824 28.341 125.14 26.073C126.484 23.805 128.332 22.027 130.684 20.739C133.064 19.423 135.71 18.765 138.622 18.765C141.534 18.765 144.152 19.409 146.476 20.697C148.828 21.985 150.676 23.777 152.02 26.073C153.364 28.341 154.036 30.889 154.036 33.717C154.036 36.545 153.364 39.107 152.02 41.403C150.676 43.671 148.828 45.449 146.476 46.737C144.152 48.025 141.534 48.669 138.622 48.669ZM138.622 45.897C140.946 45.897 143.046 45.379 144.922 44.343C146.798 43.279 148.268 41.823 149.332 39.975C150.396 38.099 150.928 36.013 150.928 33.717C150.928 31.421 150.396 29.349 149.332 27.501C148.268 25.625 146.798 24.169 144.922 23.133C143.046 22.069 140.946 21.537 138.622 21.537C136.298 21.537 134.184 22.069 132.28 23.133C130.404 24.169 128.92 25.625 127.828 27.501C126.764 29.349 126.232 31.421 126.232 33.717C126.232 36.013 126.764 38.099 127.828 39.975C128.92 41.823 130.404 43.279 132.28 44.343C134.184 45.379 136.298 45.897 138.622 45.897ZM168.982 19.017H180.952C184.06 19.017 186.804 19.647 189.184 20.907C191.564 22.139 193.412 23.875 194.728 26.115C196.044 28.327 196.702 30.861 196.702 33.717C196.702 36.573 196.044 39.121 194.728 41.361C193.412 43.573 191.564 45.309 189.184 46.569C186.804 47.801 184.06 48.417 180.952 48.417H168.982V19.017ZM180.784 45.729C183.36 45.729 185.614 45.225 187.546 44.217C189.478 43.181 190.976 41.767 192.04 39.975C193.104 38.155 193.636 36.069 193.636 33.717C193.636 31.365 193.104 29.293 192.04 27.501C190.976 25.681 189.478 24.267 187.546 23.259C185.614 22.223 183.36 21.705 180.784 21.705H172.09V45.729H180.784Z" fill="#F26146"/>
<path d="M237.239 40.563H220.859L217.331 48.417H214.097L227.537 19.017H230.603L244.043 48.417H240.767L237.239 40.563ZM236.105 38.043L229.049 22.251L221.993 38.043H236.105ZM275.409 33.255C277.341 33.675 278.825 34.515 279.861 35.775C280.925 37.007 281.457 38.603 281.457 40.563C281.457 43.083 280.519 45.029 278.643 46.401C276.795 47.745 274.051 48.417 270.411 48.417H256.887V19.017H269.571C272.847 19.017 275.381 19.675 277.173 20.991C278.993 22.307 279.903 24.169 279.903 26.577C279.903 28.201 279.497 29.587 278.685 30.735C277.901 31.855 276.809 32.695 275.409 33.255ZM259.995 21.579V32.247H269.361C271.741 32.247 273.575 31.799 274.863 30.903C276.151 29.979 276.795 28.649 276.795 26.913C276.795 25.177 276.151 23.861 274.863 22.965C273.575 22.041 271.741 21.579 269.361 21.579H259.995ZM270.369 45.855C273.001 45.855 274.989 45.407 276.333 44.511C277.677 43.615 278.349 42.215 278.349 40.311C278.349 36.643 275.689 34.809 270.369 34.809H259.995V45.855H270.369ZM296.531 19.017H299.639V45.729H316.103V48.417H296.531V19.017ZM350.033 45.729V48.417H329.243V19.017H349.403V21.705H332.351V32.163H347.555V34.809H332.351V45.729H350.033Z" fill="white"/>
<defs>
<linearGradient id="paint0_linear" x1="371.254" y1="33.4873" x2="20.7828" y2="33.4873" gradientUnits="userSpaceOnUse">
<stop offset="0.0276243" stop-color="#F34343"/>
<stop offset="1" stop-color="#FF7E52"/>
</linearGradient>
</defs>
</svg>
